<svg xmlns="http://www.w3.org/2000/svg" width="129" height="127">
  <g fill="none" fill-rule="evenodd">
    <path fill="#C0ECF9" d="M101.33 94.83c-16.78-23.73-25.9 36.08-39.8 30.84-13.88-5.14-7.17-49.72-23.4-56.44C25.63 64-4.1 93.05 1.73 44.7 5.63 12.3 27.3-8.97 39.43 5.76c12.7 15.42 10.9 35.6 30.15 26.6 15.62-7.32 24.55-15.43 39.64-12.66 16.5 3.06 21.27 38.45 17.58 59.12-3.62 20.66-16.57 28.66-25.5 16z"/>
    <path fill="#FFF" d="M68.1 11.02l4.8-2.45L92.1 68l-4.07 25-44.28 18.57L15.1 33.45l6-3.45m9.37 17.2l34.76-13.3"/>
    <path stroke="#3A3A3A" stroke-width="2" d="M30.47 47.2l34.76-13.3" stroke-linecap="round" stroke-linejoin="round"/>
    <path fill="#FFF" d="M34.16 55.03L64 45.63"/>
    <path stroke="#3A3A3A" stroke-width="2" d="M34.16 55.03L64 45.63" stroke-linecap="round" stroke-linejoin="round"/>
    <path fill="#FFF" d="M37.4 64.5L71.83 53"/>
    <path stroke="#3A3A3A" stroke-width="2" d="M37.4 64.5L71.83 53" stroke-linecap="round" stroke-linejoin="round"/>
    <path fill="#FFF" d="M41.24 73.68l23.22-7.44"/>
    <path stroke="#3A3A3A" stroke-width="2" d="M41.24 73.68l23.22-7.44" stroke-linecap="round" stroke-linejoin="round"/>
    <path fill="#FFF" d="M45.23 83.97l31.53-11.7"/>
    <path stroke="#3A3A3A" stroke-width="2" d="M45.23 83.97l31.53-11.7M21.5 43.67c-1.38-.44-2.9-.04-4.03.85-1.43 1.1-.64 3.43 1.16 3.46m5.5 1.67c-1.67-.18-3.38.5-4.7 1.84-.18.2-.38.4-.46.7-.22.7.34 1.5.95 1.6.6.1 1.2-.2 1.74-.58m4.9 6.28c-1.37-.37-2.9-.03-4.03.7-1.43.96-.64 2.93 1.16 2.95m5.5 1.27c-1.7-.2-3.4.55-4.7 2.02-.2.2-.4.45-.5.77-.2.8.7 2.35 2.63 2.15m5.05 5.14c-1.38-.46-2.9-.06-4.03.83-1.44 1.1-.65 3.43 1.15 3.46m5.5 1.67c-1.68-.17-3.4.5-4.7 1.85-.2.2-.4.43-.47.73-.2.72.34 1.5.95 1.63.6.12 1.2-.23 1.76-.56m6.06 5.9c-1.37-.45-2.9-.05-4.03.84-1.46 1.1-.67 3.43 1.13 3.46l.2-.8M40.6 96c-1.55-.16-4.2-.03-4.84 1.72-.76 2.03.77 2.88 2.36 1.92" stroke-linecap="round" stroke-linejoin="round"/>
    <path fill="#FFF" d="M95.6 40.3l-10.1 67.6-.75.76 3.75-2.32 2.25 2.63 3.2-2v1.84l11.8-68"/>
    <path stroke="#3A3A3A" stroke-width="2" d="M93.65 40.3l-8.3 67.6-.62.76 3.08-2.32 1.9 2.63 2.6-2v1.84L102 42" stroke-linecap="round" stroke-linejoin="round"/>
    <path fill="#FFF" d="M85.2 109.42l2 8.95 5.07-8.95"/>
    <path stroke="#3A3A3A" stroke-width="2" d="M85.2 109.42l2 8.95 5.07-8.95" stroke-linecap="round" stroke-linejoin="round"/>
    <path fill="#FFF" d="M86.26 114.52c2.46-.47 3.08 1.08 3.08 1.08"/>
    <path stroke="#3A3A3A" stroke-width="1.82" d="M86.26 114.52c2.46-.47 3.08 1.08 3.08 1.08" stroke-linecap="round" stroke-linejoin="round"/>
    <path fill="#FFF" d="M94.5 40.65l11.8.78 1.2-9.37-12.4-.63"/>
    <path stroke="#3A3A3A" stroke-width="1.83" d="M93.5 41.23l9.07.9.92-10.97-9.6-.73z" stroke-linecap="round" stroke-linejoin="round"/>
    <path fill="#FFF" d="M94.4 35.36l8.32-.15"/>
    <path stroke="#3A3A3A" stroke-width="2" d="M94.4 34.36l8.32-.15" stroke-linecap="round" stroke-linejoin="round"/>
    <path fill="#FFF" d="M94.26 37.83l8.15-.15"/>
    <path stroke="#3A3A3A" stroke-width="2" d="M94.26 37.83l8.15-.15" stroke-linecap="round" stroke-linejoin="round"/>
    <path stroke="#3A3A3A" stroke-width="2" d="M87 60L70.32 9.96c-.17-.52-.74-.8-1.26-.63h-.02l-12.88 4.5-40.36 19.8c-.46.22-.67.75-.5 1.23L41.64 109c.2.52.76.8 1.28.6.02 0 .04 0 .06-.02L82 93" stroke-linecap="round"/>
  </g>
</svg>
